<svg id="ImportedIcons" xmlns="http://www.w3.org/2000/svg" width="96" height="96" viewBox="0 0 96 96">
  <defs>
    <style>
      .cls-1 {
        fill: #b3b3b3;
      }
    </style>
  </defs>
  <path class="cls-1" d="M55,19h6a1,1,0,0,0,0-2H55a1,1,0,0,0,0,2Z"/>
  <path class="cls-1" d="M58,68.5V63.429c2.516-.331,4.24-1.869,5.909-3.369C66.131,58.06,68.429,56,73,56a1,1,0,0,0,0-2c-5.338,0-8.16,2.535-10.427,4.573C61.031,59.958,59.757,61.087,58,61.4V56.5A3.5,3.5,0,0,0,54.5,53h-32A3.5,3.5,0,0,0,19,56.5v12A3.5,3.5,0,0,0,22.5,72h32A3.5,3.5,0,0,0,58,68.5Zm-36,0v-12a.5.5,0,0,1,.5-.5h32a.5.5,0,0,1,.5.5v12a.5.5,0,0,1-.5.5h-32A.5.5,0,0,1,22,68.5Z"/>
  <path class="cls-1" d="M45,40.5V35.565c3.384.314,5.5,2.179,7.892,4.331C56.079,42.757,59.691,46,67,46h6a1,1,0,0,0,0-2H67c-6.543,0-9.709-2.843-12.771-5.593-2.492-2.238-5.066-4.543-9.229-4.865V28.5A3.5,3.5,0,0,0,41.5,25H9.5A3.5,3.5,0,0,0,6,28.5v12A3.5,3.5,0,0,0,9.5,44h32A3.5,3.5,0,0,0,45,40.5Zm-36,0v-12a.5.5,0,0,1,.5-.5h32a.5.5,0,0,1,.5.5v12a.5.5,0,0,1-.5.5H9.5A.5.5,0,0,1,9,40.5Z"/>
  <path class="cls-1" d="M84.5,11h-32A3.5,3.5,0,0,0,49,14.5v16a1.5,1.5,0,0,0,3,0v-16a.5.5,0,0,1,.5-.5h32a.5.5,0,0,1,.5.5v64a.5.5,0,0,1-.5.5h-32a.5.5,0,0,1-.5-.5v-2a1.5,1.5,0,0,0-3,0v2A3.5,3.5,0,0,0,52.5,82h32A3.5,3.5,0,0,0,88,78.5v-64A3.5,3.5,0,0,0,84.5,11Z"/>
  <path class="cls-1" d="M49,42.5v7a1.5,1.5,0,0,0,3,0v-7a1.5,1.5,0,0,0-3,0Z"/>
</svg>
